<?xml version="1.0" encoding="UTF-8" standalone="no"?>
<!-- Created with Inkscape (http://www.inkscape.org/) -->

<svg
   width="63.999996"
   height="63.999996"
   viewBox="0 0 16.933332 16.933332"
   version="1.1"
   id="svg1"
   xml:space="preserve"
   xmlns="http://www.w3.org/2000/svg"
   xmlns:svg="http://www.w3.org/2000/svg"><defs
     id="defs1" /><g
     id="layer1"
     transform="translate(-0.01383567,0.02155906)"><g
       id="layer2"
       style="fill:#8a2be2;fill-opacity:1"><path
         d="m 0.01383567,6.635178 3.99045423,3.952697 c 3.2321106,3.255723 5.6730386,1.315843 5.6730386,1.315843 1.6883215,-1.36882 -0.40721,-2.6296193 -0.40721,-2.6296193 -0.0032,-0.00155 -0.0061,-0.00258 -0.0093,-0.00414 C 2.3920615,8.346658 0.6203847,3.2131681 0.17093197,1.0027934 a 1.6933332,1.69354 0 0 0 -0.1570963,0.6698081 z"
         style="stroke-width:0.0499993"
         id="path7" /><path
         d="M 16.016993,0.16139787 C 9.6785755,1.4477895 7.9534025,2.6886837 7.9534025,2.6886837 4.8781845,4.9394572 5.9773185,6.86255 7.3425875,8.0388813 13.036272,6.9986798 15.880935,13.752634 16.691887,16.107594 a 1.6933332,1.69354 0 0 0 0.255282,-0.889977 V 1.6715674 A 1.6930817,1.6932883 0 0 0 16.016993,0.16139787 Z"
         style="stroke-width:0.0499993"
         id="path5" /></g><g
       id="g1"
       transform="matrix(0.13165432,0,0,0.13165081,0.05462607,0.05555747)"><path
         d="m 65.74277,67.824254 c -2.854976,-1.598878 -6.743502,-4.045631 -10.385975,-7.184112 -0.1314,0.02401 -0.260717,0.03771 -0.392516,0.06281 0,0 3.554735,3.186666 10.778491,7.121302 z"
         style="display:inline;fill:#0072f5;stroke-width:0.379782"
         id="path9" /><path
         d="m 69.926991,69.991264 c 0.02394,0.0032 0.04669,0.0046 0.07065,0.0079 0,0 -0.663393,-0.329256 -1.012691,-0.494644 0.324354,0.160898 0.606148,0.324753 0.942039,0.486792 z"
         style="display:inline;fill:#0072f5;stroke-width:0.379782"
         id="path8" /><path
         d="M 126.3708,121.92886 C 120.21109,104.04094 98.604029,52.738926 55.356795,60.640142 c 4.3072,3.711232 8.88199,6.399067 11.759781,7.922151 0.595284,0.311367 1.2283,0.624666 1.868376,0.942179 0.349298,0.165388 1.012691,0.494644 1.012691,0.494644 -0.02396,-0.0032 -0.04671,-0.0046 -0.07065,-0.0079 0.02446,0.0118 0.04613,0.0196 0.07065,0.03141 0,0 15.916924,9.576837 3.093027,19.974187 0,0 -18.540436,14.735037 -43.090411,-9.994945 L -0.30982956,49.97782 v 65.19876 A 12.860054,12.861967 0 0 0 12.548996,128.03732 H 115.451 a 12.861965,12.863878 0 0 0 10.9198,-6.10846 z"
         style="display:inline;fill:#0072f5;stroke:none;stroke-width:0;stroke-dasharray:none"
         id="path6" /><path
         d="M 121.24454,0.80394779 A 12.860054,12.861967 0 0 0 115.451,-0.58576567 H 12.548996 A 12.861965,12.863878 0 0 0 0.8834192,7.1950594 C 4.298874,23.992459 17.765443,63.011962 69.997643,69.999116 c 0,0 -48.847894,-21.565439 -10.001308,-49.998279 0,0 13.103759,-9.425638 61.248205,-19.19688921 z"
         style="fill:#ff990a;stroke-width:0.379782"
         id="path4" /></g><text
       xml:space="preserve"
       style="font-weight:500;font-size:16.9331px;font-family:Geist;-inkscape-font-specification:'Geist Medium';text-align:center;text-anchor:middle;display:inline;fill:#8a2be2;fill-opacity:1;stroke:none;stroke-width:0.0499993;stroke-dasharray:none;stroke-opacity:1"
       x="8.4804544"
       y="14.456407"
       id="text2"><tspan
         id="tspan2"
         style="font-style:normal;font-variant:normal;font-weight:500;font-stretch:normal;font-size:16.9331px;font-family:Geist;-inkscape-font-specification:'Geist Medium';fill:#ffffff;fill-opacity:1;stroke-width:0.0499993"
         x="8.4804544"
         y="14.456407">S</tspan></text></g></svg>
