<?xml version="1.0" encoding="UTF-8" standalone="no"?>
<!-- Created with Inkscape (http://www.inkscape.org/) -->

<svg
   width="15.999999"
   height="15.999999"
   viewBox="0 0 4.233333 4.233333"
   version="1.1"
   id="svg1"
   xml:space="preserve"
   xmlns="http://www.w3.org/2000/svg"
   xmlns:svg="http://www.w3.org/2000/svg"><defs
     id="defs1" /><g
     id="layer1"
     transform="translate(-0.02500158,-0.01886479)"><g
       id="layer2"
       style="fill:#8a2be2;fill-opacity:1"><path
         d="M 0.02500158,1.683049 1.0226146,2.671223 c 0.808028,0.813931 1.41826,0.328961 1.41826,0.328961 0.422081,-0.342205 -0.101802,-0.657405 -0.101802,-0.657405 -8e-4,-3.87e-4 -0.0015,-6.5e-4 -0.0023,-0.001 C 0.61955758,2.110956 0.17663858,0.82758292 0.06427558,0.27498992 a 0.42333333,0.423385 0 0 0 -0.03927,0.167452 z"
         style="stroke-width:0.0124998"
         id="path7" /><path
         d="m 4.0257906,0.06460392 c -1.584604,0.321598 -2.015897,0.631821 -2.015897,0.631821 C 1.2410886,1.259119 1.5158725,1.739892 1.8571896,2.033975 c 1.423421,-0.260051 2.134587,1.428438 2.337325,2.017178 a 0.42333333,0.423385 0 0 0 0.06382,-0.222494 V 0.44214592 a 0.42327045,0.42332207 0 0 0 -0.232544,-0.377542 z"
         style="stroke-width:0.0124998"
         id="path5" /></g><g
       id="g1"
       transform="matrix(0.03291358,0,0,0.0329127,0.03519958,0.03814392)"><path
         d="m 65.74277,67.824254 c -2.854976,-1.598878 -6.743502,-4.045631 -10.385975,-7.184112 -0.1314,0.02401 -0.260717,0.03771 -0.392516,0.06281 0,0 3.554735,3.186666 10.778491,7.121302 z"
         style="display:inline;fill:#0072f5;stroke-width:0.379782"
         id="path9" /><path
         d="m 69.926991,69.991264 c 0.02394,0.0032 0.04669,0.0046 0.07065,0.0079 0,0 -0.663393,-0.329256 -1.012691,-0.494644 0.324354,0.160898 0.606148,0.324753 0.942039,0.486792 z"
         style="display:inline;fill:#0072f5;stroke-width:0.379782"
         id="path8" /><path
         d="M 126.3708,121.92886 C 120.21109,104.04094 98.604029,52.738926 55.356795,60.640142 c 4.3072,3.711232 8.88199,6.399067 11.759781,7.922151 0.595284,0.311367 1.2283,0.624666 1.868376,0.942179 0.349298,0.165388 1.012691,0.494644 1.012691,0.494644 -0.02396,-0.0032 -0.04671,-0.0046 -0.07065,-0.0079 0.02446,0.0118 0.04613,0.0196 0.07065,0.03141 0,0 15.916924,9.576837 3.093027,19.974187 0,0 -18.540436,14.735037 -43.090411,-9.994945 L -0.30982956,49.97782 v 65.19876 A 12.860054,12.861967 0 0 0 12.548996,128.03732 H 115.451 a 12.861965,12.863878 0 0 0 10.9198,-6.10846 z"
         style="display:inline;fill:#0072f5;stroke:none;stroke-width:0;stroke-dasharray:none;stroke-opacity:1"
         id="path6" /><path
         d="M 121.24454,0.80394779 A 12.860054,12.861967 0 0 0 115.451,-0.58576567 H 12.548996 A 12.861965,12.863878 0 0 0 0.8834192,7.1950594 C 4.298874,23.992459 17.765443,63.011962 69.997643,69.999116 c 0,0 -48.847894,-21.565439 -10.001308,-49.998279 0,0 13.103759,-9.425638 61.248205,-19.19688921 z"
         style="fill:#ff990a;stroke-width:0.379782"
         id="path4" /></g><text
       xml:space="preserve"
       style="font-weight:500;font-size:4.23327px;font-family:Geist;-inkscape-font-specification:'Geist Medium';text-align:center;text-anchor:middle;display:inline;fill:#8a2be2;fill-opacity:1;stroke:none;stroke-width:0.0124998;stroke-dasharray:none;stroke-opacity:1"
       x="2.141655"
       y="3.638356"
       id="text2"><tspan
         id="tspan2"
         style="font-style:normal;font-variant:normal;font-weight:500;font-stretch:normal;font-size:4.23327px;font-family:Geist;-inkscape-font-specification:'Geist Medium';fill:#ffffff;fill-opacity:1;stroke-width:0.0124998"
         x="2.141655"
         y="3.638356">S</tspan></text></g></svg>
