<?xml version="1.0" encoding="UTF-8" standalone="no"?>
<!-- Created with Inkscape (http://www.inkscape.org/) -->

<svg
   width="31.999998"
   height="31.996096"
   viewBox="0 0 8.466666 8.4656335"
   version="1.1"
   id="svg1"
   xml:space="preserve"
   xmlns="http://www.w3.org/2000/svg"
   xmlns:svg="http://www.w3.org/2000/svg"><defs
     id="defs1" /><g
     id="layer1"
     transform="translate(0,-5.1676419e-4)"><g
       id="layer2"
       style="fill:#8a2be2;fill-opacity:1"><path
         d="M 0,3.328479 1.9952271,5.3045858 C 3.6112822,6.9322477 4.8317464,5.9624268 4.8317464,5.9624268 5.6759072,5.2781006 4.6281413,4.6477783 4.6281413,4.6477783 c -0.00161,-7.77e-4 -0.00304,-0.00129 -0.00465,-0.00207 C 1.1891129,4.1841143 0.30327452,1.6176827 0.07854818,0.51263021 A 0.84666662,0.84666662 0 0 0 0,0.84749349 Z"
         style="stroke-width:0.0249981"
         id="path7" /><path
         d="M 8.0015788,0.09198405 C 4.8323699,0.73510144 3.9697835,1.3554728 3.9697835,1.3554728 2.4321744,2.4807221 2.9817416,3.4421511 3.6643758,4.030245 6.5112184,3.5102077 7.9335498,6.8867714 8.3390259,8.0641073 A 0.84666662,0.84666662 0 0 0 8.4666667,7.6191732 V 0.84697673 A 0.84654083,0.84654083 0 0 0 8.0015788,0.09198405 Z"
         style="stroke-width:0.0249981"
         id="path5" /></g><g
       id="g1"
       transform="matrix(0.06582716,0,0,0.06581737,0.0203952,0.03907032)"><path
         d="m 65.74277,67.824254 c -2.854976,-1.598878 -6.743502,-4.045631 -10.385975,-7.184112 -0.1314,0.02401 -0.260717,0.03771 -0.392516,0.06281 0,0 3.554735,3.186666 10.778491,7.121302 z"
         style="display:inline;fill:#0072f5;stroke-width:0.379782"
         id="path9" /><path
         d="m 69.926991,69.991264 c 0.02394,0.0032 0.04669,0.0046 0.07065,0.0079 0,0 -0.663393,-0.329256 -1.012691,-0.494644 0.324354,0.160898 0.606148,0.324753 0.942039,0.486792 z"
         style="display:inline;fill:#0072f5;stroke-width:0.379782"
         id="path8" /><path
         d="M 126.3708,121.92886 C 120.21109,104.04094 98.604029,52.738926 55.356795,60.640142 c 4.3072,3.711232 8.88199,6.399067 11.759781,7.922151 0.595284,0.311367 1.2283,0.624666 1.868376,0.942179 0.349298,0.165388 1.012691,0.494644 1.012691,0.494644 -0.02396,-0.0032 -0.04671,-0.0046 -0.07065,-0.0079 0.02446,0.0118 0.04613,0.0196 0.07065,0.03141 0,0 15.916924,9.576837 3.093027,19.974187 0,0 -18.540436,14.735037 -43.090411,-9.994945 L -0.30982956,49.97782 v 65.19876 A 12.860054,12.861967 0 0 0 12.548996,128.03732 H 115.451 a 12.861965,12.863878 0 0 0 10.9198,-6.10846 z"
         style="display:inline;fill:#0072f5;stroke-width:0.379782"
         id="path6" /><path
         d="M 121.24454,0.80394779 A 12.860054,12.861967 0 0 0 115.451,-0.58576567 H 12.548996 A 12.861965,12.863878 0 0 0 0.8834192,7.1950594 C 4.298874,23.992459 17.765443,63.011962 69.997643,69.999116 c 0,0 -48.847894,-21.565439 -10.001308,-49.998279 0,0 13.103759,-9.425638 61.248205,-19.19688921 z"
         style="fill:#ff990a;stroke-width:0.379782"
         id="path4" /></g><text
       xml:space="preserve"
       style="font-weight:500;font-size:8.46603px;font-family:Geist;-inkscape-font-specification:'Geist Medium';text-align:center;text-anchor:middle;display:inline;fill:#8a2be2;fill-opacity:1;stroke:none;stroke-width:0.0249981;stroke-dasharray:none;stroke-opacity:1"
       x="4.2330227"
       y="7.2390885"
       id="text2"
       transform="scale(1.0000743,0.9999257)"><tspan
         id="tspan2"
         style="font-style:normal;font-variant:normal;font-weight:500;font-stretch:normal;font-size:8.46603px;font-family:Geist;-inkscape-font-specification:'Geist Medium';fill:#ffffff;fill-opacity:1;stroke-width:0.0249981"
         x="4.2330227"
         y="7.2390885">S</tspan></text></g></svg>
