<?xml version="1.0" encoding="UTF-8" standalone="no"?>
<!-- Created with Inkscape (http://www.inkscape.org/) -->

<svg
   width="64"
   height="64"
   viewBox="0 0 16.933333 16.933333"
   version="1.1"
   id="svg1"
   inkscape:version="1.3.2 (091e20e, 2023-11-25, custom)"
   sodipodi:docname="icon64.svg"
   inkscape:export-filename="..\..\..\Users\bitte\Downloads\icon64.svg"
   inkscape:export-xdpi="96"
   inkscape:export-ydpi="96"
   xmlns:inkscape="http://www.inkscape.org/namespaces/inkscape"
   xmlns:sodipodi="http://sodipodi.sourceforge.net/DTD/sodipodi-0.dtd"
   xmlns="http://www.w3.org/2000/svg"
   xmlns:svg="http://www.w3.org/2000/svg">
  <sodipodi:namedview
     id="namedview1"
     pagecolor="#ffffff"
     bordercolor="#000000"
     borderopacity="0.25"
     inkscape:showpageshadow="2"
     inkscape:pageopacity="0.0"
     inkscape:pagecheckerboard="0"
     inkscape:deskcolor="#d1d1d1"
     inkscape:document-units="mm"
     inkscape:zoom="5.6568545"
     inkscape:cx="39.774755"
     inkscape:cy="24.483571"
     inkscape:window-width="1260"
     inkscape:window-height="1041"
     inkscape:window-x="644"
     inkscape:window-y="0"
     inkscape:window-maximized="0"
     inkscape:current-layer="layer1" />
  <defs
     id="defs1" />
  <g
     inkscape:label="Layer 1"
     inkscape:groupmode="layer"
     id="layer1"
     style="display:inline">
    <path
       d="m 13.204871,0.02484948 -2.619837,1.66952472 0.08601,0.027981 0.361679,0.1554494 h 10e-4 l 0.268409,0.1440495 0.383441,0.2383555 0.320226,0.2476825 0.290172,0.2694453 0.247682,0.268409 0.300535,0.3834415 0.320226,0.5378541 0.217628,0.5274912 0.185504,0.6311239 0.103633,0.6311237 L 11.581981,5.8707767 11.540528,5.6116946 11.478348,5.3743755 11.374716,5.0738402 11.281446,4.8665747 11.106307,4.5152595 10.867951,4.2053972 10.557053,3.9048622 10.226464,3.6571797 9.8647854,3.481004 9.5642504,3.377371 9.1611186,3.2737383 8.8098033,3.2426485 8.4574519,3.2322851 8.1848974,3.2395395 c -0.04892,0.02968 -0.093384,0.059419 -0.1399039,0.089125 h -0.00104 c -4.276e-4,1.896e-4 -6.524e-4,7.886e-4 -0.00104,0.00104 L 7.8512008,3.4737498 7.5029945,3.7224687 7.2874382,3.9214442 7.0221383,4.2199066 6.8397436,4.5349505 6.7091669,4.8924837 c -2.314e-4,0.00106 -8.206e-4,0.00205 -0.00104,0.00311 l -0.00104,0.00415 -0.00104,0.00828 -0.037309,0.3150439 c -0.00139,0.06572 6.289e-4,0.1325922 0.00622,0.2010477 5.76e-5,7.051e-4 -5.84e-5,0.00137 0,0.00207 l 0.048708,0.3026078 0.082906,0.3077895 c 0.082976,0.2529415 0.2008865,0.5228239 0.3606423,0.8166266 h 0.00104 l 0.3067532,0.1243599 0.4756746,0.15545 0.3720418,0.1025971 0.558581,0.145086 0.5274909,0.1243599 0.5285274,0.1347219 0.4134949,0.1233232 0.444585,0.1450859 0.331624,0.12436 0.413495,0.1761759 0.299499,0.1440491 0.310899,0.1658119 0.423858,0.2901721 0.18654,0.1544131 0.195865,0.176176 0.196902,0.2072655 0.134722,0.1647771 0.12436,0.1865399 0.112959,0.1865399 0.103632,0.1958644 0.09327,0.207266 0.09327,0.279809 0.0062,0.03005 0.0145,-0.01037 3.133856,-2.7048163 V 0.02484948 Z M 0.02484948,6.7309291 V 16.970888 l 0.01658125,-1.98975 H 0.6880995 l 1.5088939,-0.149232 1.4591499,-0.198975 1.6249626,-0.298462 0.012436,-0.0031 -0.052853,-0.04042 L 5.0126969,14.094041 4.744288,13.804905 4.5370223,13.556186 4.2986668,13.235961 4.0509845,12.781013 3.8955352,12.407935 3.7504493,11.99444 l -0.09327,-0.382405 -0.071507,-0.445621 -0.03109,-0.330589 2.0996011,-0.145086 0.06218,0.445621 0.082906,0.299499 0.082906,0.227992 0.1129591,0.258046 0.134722,0.290172 0.1658119,0.247682 0.2176289,0.259082 0.2165925,0.206229 0.2487189,0.176176 0.2580456,0.145086 0.3834415,0.176176 0.3927684,0.112959 0.2766995,0.04249 0.025908,-0.0062 0.5306002,-0.116069 0.3119347,-0.08705 C 9.795541,13.171725 10.312476,12.957622 10.795408,12.682562 l 0.421786,-0.271518 0.596925,-0.431113 0.0021,-0.001 0.02384,-0.150268 -0.02073,-0.392768 -0.04145,-0.207266 -0.08187,-0.289135 L 11.550891,10.659649 11.343626,10.42233 11.044127,10.173611 10.722865,9.976709 10.37155,9.8015695 9.9476918,9.6357569 9.3891109,9.4388546 8.9890882,9.3207131 9.1611186,9.4927436 11.814119,11.946769 5.6458934,10.686594 4.6178559,10.404712 3.8385372,10.056506 2.8768247,9.5590686 2.047762,8.995306 1.3513495,8.3817999 0.70468075,7.6522249 0.20724324,6.9889748 Z"
       style="display:inline;fill:#763da9;stroke:#7d7d7d;stroke-width:0"
       id="path33" />
    <path
       d="M 0.02484948,0.00826823 0.00826823,6.7216077 0.20724324,7.0027083 0.70468075,7.664121 1.3513495,8.3916752 2.047762,9.0034817 l 0.8290627,0.5622011 0.9617125,0.4960592 0.7793187,0.347242 1.0280375,0.2811 6.1682256,1.256685 L 9.1611186,9.4995416 8.7631685,9.1026939 8.3320561,8.6066343 8.0004311,8.1767161 7.668806,7.6971917 7.403506,7.2838088 7.1216247,6.9698212 6.8894872,6.6224879 6.7070935,6.2091048 6.5910247,5.7791867 6.541281,5.332641 6.5744436,4.9192579 6.7070935,4.5886437 6.8894874,4.2413099 7.1547873,3.927093 7.3869248,3.6955068 7.735131,3.464058 8.1828248,3.249191 13.256687,0.02480356 Z"
       style="display:inline;fill:#ff990a;stroke:#7d7d7d;stroke-width:0"
       id="path32"
       sodipodi:nodetypes="ccccccccccccccccccccccccccccccc"
       inkscape:export-filename="..\..\..\Users\bitte\Downloads\path32.png"
       inkscape:export-xdpi="96"
       inkscape:export-ydpi="96" />
    <path
       d="m 16.987469,7.8677812 -3.150438,2.7193248 -1.774194,1.309919 -0.812481,0.646669 -0.514019,0.281881 -0.563762,0.281881 -0.712994,0.281882 -0.5969249,0.198975 -0.5471813,0.08291 -3.0343689,0.66325 -1.6249626,0.298462 -1.4591499,0.198975 -1.5088939,0.149232 H 0.04143073 l -0.01658125,1.98975 H 16.987469 Z"
       style="display:inline;fill:#0072f5;stroke:#7d7d7d;stroke-width:0"
       id="path31"
       sodipodi:nodetypes="ccccccccccccccccc" />
    <path
       id="path19"
       style="display:inline;fill:#ffffff;stroke-width:0.250607"
       d="M 8.232442,1.3503131 7.6185643,1.4024236 7.1709887,1.4749827 6.692614,1.5884194 6.2665955,1.7335376 5.8703467,1.9307862 5.5069486,2.1270063 5.1219911,2.3968059 4.7986268,2.6972624 4.53891,2.9977212 4.2997239,3.3594985 4.1118604,3.7120758 3.9671234,4.1372143 3.9147599,4.3651139 3.8316053,4.892448 3.8110833,5.2348069 3.8214113,5.5352657 3.8522023,5.845943 3.9148173,6.2291815 4.0082413,6.5919791 4.1540111,6.9128766 4.3100507,7.1816539 4.549239,7.4718925 4.8613098,7.7519126 5.1107625,7.937909 5.4443909,8.145368 5.985384,8.4151679 6.443226,8.5909407 6.984219,8.7769371 7.4728566,8.9220572 8.3053898,9.1397362 8.9192677,9.2950798 C 8.7298977,9.0648252 8.5555894,8.8468137 8.3905965,8.6348832 8.5552713,8.8464401 8.7301738,9.0651615 8.9192706,9.2950744 l 0.4886384,0.145118 0.5625501,0.1972489 0.4260189,0.1655673 0.35416,0.1757728 0.322337,0.1972486 0.301807,0.248337 0.20839,0.238118 0.145769,0.28002 0.08315,0.289216 0.04106,0.207459 0.02156,0.393459 -0.02566,0.162481 c 0.136304,-0.10719 0.275249,-0.221547 0.419858,-0.344405 0.130595,-0.110944 0.266928,-0.231252 0.407541,-0.356665 -0.140772,0.125717 -0.276814,0.245489 -0.407541,0.356665 -0.144039,0.122494 -0.284117,0.237639 -0.419859,0.344403 -1.033321,0.812728 -1.8873606,1.200036 -3.4605055,1.602446 H 8.387517 L 8.0241179,13.542368 7.6288954,13.427903 7.2439389,13.252132 6.9842221,13.107013 6.7347697,12.931242 6.5161138,12.723783 6.2974579,12.465226 6.1311482,12.215865 5.9956492,11.925627 5.8817036,11.66707 l -0.084168,-0.2279 -0.083155,-0.300457 -0.061601,-0.445579 -2.1126429,0.145119 0.030791,0.332139 0.072885,0.444556 0.094439,0.383237 0.144737,0.41492 0.1570523,0.373018 0.2494524,0.455797 0.2391864,0.320898 0.2083897,0.248336 0.2699829,0.290239 0.2289222,0.197248 C 5.9006053,14.15898 6.4847152,14.035802 7.0047209,13.921535 6.4840498,14.035843 5.9008377,14.158933 5.2359726,14.298641 l 0.3644251,0.278997 0.2915403,0.187026 0.3634001,0.185996 0.4578422,0.197249 0.4475761,0.133886 0.5204616,0.114465 0.4157531,0.06233 0.4373109,0.03065 0.5933469,0.02045 0.457842,-0.01029 0.4475761,-0.04088 0.384957,-0.06233 0.44655,-0.103213 0.469134,-0.145118 0.44655,-0.197249 0.260744,-0.124689 0.259717,-0.144089 0.228921,-0.166576 0.20839,-0.165567 0.186833,-0.165568 0.208389,-0.217676 0.198126,-0.258557 0.217629,-0.342359 0.156035,-0.310678 0.104708,-0.290238 0.08315,-0.299436 0.07289,-0.41492 L 13.9863,11.687459 13.97603,11.253123 13.93394,10.910764 13.86208,10.569428 13.76764,10.289407 13.67422,10.081954 13.570538,9.8857342 13.455564,9.69871 13.331352,9.5127142 13.195847,9.3471475 12.997724,9.1396885 12.800625,8.963917 12.612766,8.8085744 12.186747,8.5183358 11.874675,8.3527689 11.572869,8.2076507 11.156089,8.0308509 10.823487,7.9071898 10.37591,7.7620716 9.9601571,7.6373822 9.4294298,7.5034969 8.8987029,7.3788077 8.3371792,7.2336894 7.9624878,7.130477 7.4830884,6.9751344 7.1751234,6.8504449 C 6.2393616,5.1378756 6.6219988,4.1834076 8.1955149,3.2326832 l 0.2761424,-0.00712 0.3541603,0.010288 0.3531335,0.030653 0.4065146,0.1032108 0.3018061,0.1042396 0.3633992,0.1757729 0.333629,0.2483366 0.312072,0.3004589 0.239186,0.3106772 0.176565,0.3525793 0.09342,0.207459 0.104708,0.3004589 0.06262,0.238118 0.04106,0.2585569 L 13.71631,5.7529341 13.611602,5.1203298 13.42477,4.4887591 13.206114,3.9604026 12.883777,3.4218253 12.581971,3.038589 12.332519,2.7698118 12.040978,2.5000125 11.718641,2.2516739 11.333684,2.0135558 11.062675,1.8684375 10.698249,1.7130949 10.345115,1.5986299 10.033044,1.5158464 9.6686179,1.4432873 9.3144576,1.3921854 8.7221375,1.3502795 Z M 10.173651,2.249643 C 9.9345649,2.3545165 9.7073016,2.4567856 9.4920207,2.5572566 9.7075124,2.4566747 9.9343688,2.3546174 10.173651,2.249643 Z M 9.4211885,2.5899585 C 9.2146556,2.6871571 9.0219582,2.7834292 8.8381074,2.878154 9.0221586,2.7833479 9.2144284,2.6872744 9.4211885,2.5899585 Z M 7.502564,7.3983129 C 7.528845,7.4392099 7.557141,7.4823219 7.584688,7.5240105 7.557043,7.4822035 7.528933,7.4393095 7.502564,7.3983129 Z m 0.2227615,0.3331608 c 0.029075,0.042242 0.059007,0.08571 0.089309,0.1287639 -0.030166,-0.042836 -0.060359,-0.08674 -0.089309,-0.1287639 z m 0.185806,0.2646897 C 8.0469865,8.1850657 8.1937529,8.3808315 8.3525477,8.5858383 8.1938225,8.3809542 8.0469955,8.1849969 7.9111315,7.9961634 Z" />
  </g>
</svg>
